<?xml version="1.0" encoding="UTF-8"?>
<svg width="94px" height="147px" viewBox="0 0 94 147" version="1.1" xmlns="http://www.w3.org/2000/svg" xmlns:xlink="http://www.w3.org/1999/xlink">
    <!-- Generator: Sketch 45.2 (43514) - http://www.bohemiancoding.com/sketch -->
    <title>Slice 1</title>
    <desc>Created with Sketch.</desc>
    <defs>
        <linearGradient x1="50%" y1="0%" x2="0%" y2="100%" id="linearGradient-1">
            <stop stop-color="#FFFFFF" offset="0%"></stop>
            <stop stop-color="#FFFFFF" stop-opacity="0" offset="100%"></stop>
        </linearGradient>
    </defs>
    <g id="Page-1" stroke="none" stroke-width="1" fill="none" fill-rule="evenodd">
        <g id="Group-2" transform="translate(46.638983, 74.637735) rotate(-20.000000) translate(-46.638983, -74.637735) translate(22.638983, 7.137735)">
            <path d="M42.9254515,0.689668903 C43.2119272,2.68476803 43.4761782,4.66022828 43.7182063,6.61604787 L45.7030665,6.37042608 C45.4594334,4.40163633 45.1934595,2.41329654 44.9051469,0.405404944 L42.9254515,0.689668903 Z M44.3910303,12.5549259 C44.5968694,14.560836 44.7783431,16.5451994 44.9354543,18.5080144 L46.9290779,18.3484371 C46.7707689,16.3706575 46.5879362,14.3714342 46.3805826,12.3507654 L44.3910303,12.5549259 Z M45.3423398,24.4856571 C45.4546571,26.4979269 45.5401765,28.4864782 45.598902,30.451309 L47.5980093,30.3915591 C47.5387651,28.4093748 47.4525045,26.4035885 47.3392316,24.3741981 L45.3423398,24.4856571 Z M45.6950423,36.4214262 C45.6990109,38.436362 45.673357,40.4250537 45.6180867,42.3874998 L47.617294,42.4438054 C47.6731334,40.4611517 47.6990463,38.4523794 47.6950384,36.4174871 L45.6950423,36.4214262 Z M45.3536078,48.3587226 C45.2311572,50.3702106 45.0758137,52.3525269 44.8875857,54.3056714 L46.8783624,54.4975262 C47.0688614,52.5208165 47.226042,50.5150574 47.3499123,48.4802489 L45.3536078,48.3587226 Z M44.2043284,60.2256943 C43.9349996,62.2198648 43.6291992,64.1816591 43.286938,66.1110806 L45.2561943,66.4604081 C45.6032989,64.5036828 45.9133417,62.5146724 46.1863335,60.4933801 L44.2043284,60.2256943 Z M42.1145728,71.9643686 C41.6752834,73.925397 41.1956004,75.8505469 40.6755363,77.7398281 L42.6038135,78.2706266 C43.1324682,76.3501374 43.619928,74.3937763 44.0662053,72.4015532 L42.1145728,71.9643686 Z M38.9449295,83.4488145 C38.313337,85.3504474 37.6374569,87.2127529 36.9172998,89.0357505 L38.7774176,89.7705715 C39.5112579,87.9129363 40.1997749,86.0158115 40.8429792,84.0792168 L38.9449295,83.4488145 Z M34.5864482,94.4677629 C33.7451295,96.2781948 32.8560489,98.0462827 31.9192088,99.7720572 L33.6769194,100.726234 C34.6336648,98.9637917 35.5414158,97.1585744 36.4001749,95.3106127 L34.5864482,94.4677629 Z M28.9108165,104.909154 C27.8507057,106.590186 26.7403646,108.226832 25.5797806,109.819129 L27.1960207,110.997165 C28.383053,109.368581 29.5185563,107.694846 30.6025178,105.975994 L28.9108165,104.909154 Z M21.9168809,114.499242 C20.6453453,116.013652 19.3227302,117.483132 17.9490076,118.907712 L19.3886858,120.295994 C20.7942368,118.838407 22.1475422,117.334829 23.448574,115.785289 L21.9168809,114.499242 Z M13.6661293,123.054339 C12.2055705,124.374874 10.6948964,125.651531 9.13407307,126.884324 L10.3737112,128.453814 C11.969284,127.193574 13.5138717,125.888257 15.0074403,124.537877 L13.6661293,123.054339 Z M4.33300925,130.429136 C3.20866991,131.204853 2.06130566,131.960479 0.89090656,132.696012 L1.95509844,134.38938 C3.14962199,133.638686 4.32085371,132.867342 5.46878364,132.075349 L4.33300925,130.429136 Z" id="Path-8" fill="url(#linearGradient-1)" fill-rule="nonzero"></path>
            <polyline id="Path-5" stroke="#FFFFFF" stroke-width="2" points="41 4 43.7272727 0 48 3"></polyline>
        </g>
    </g>
</svg>