<?xml version="1.0" encoding="UTF-8"?>
<svg width="40px" height="40px" viewBox="0 0 40 40" version="1.1" xmlns="http://www.w3.org/2000/svg" xmlns:xlink="http://www.w3.org/1999/xlink">
    <!-- Generator: Sketch 45.2 (43514) - http://www.bohemiancoding.com/sketch -->
    <title>Untitled</title>
    <desc>Created with Sketch.</desc>
    <defs>
        <ellipse id="path-1" cx="20.0198038" cy="20" rx="19.8757764" ry="20"></ellipse>
    </defs>
    <g id="Page-1" stroke="none" stroke-width="1" fill="none" fill-rule="evenodd">
        <g id="icons8-user_male">
            <mask id="mask-2" fill="white">
                <use xlink:href="#path-1"></use>
            </mask>
            <use id="Mask" fill="#EFF1F5" xlink:href="#path-1"></use>
            <g mask="url(#mask-2)" id="Shape" fill-rule="nonzero" fill="#DADADA">
                <g transform="translate(6.625259, 6.376812)">
                    <path d="M0,29.9653288 C0,29.9653288 0,28.0057611 0,27.7444854 C0,24.8704528 4.25019215,22.2576959 8.88676541,21.343231 C8.88676541,21.343231 10.3034961,20.5594039 9.91711502,19.1223876 C8.5003843,17.2934578 8.1140032,15.3338901 8.1140032,15.3338901 C7.8564158,15.2032523 7.47003469,14.9419766 7.21244729,14.6807009 C6.82606618,14.1581495 6.31089138,12.5904954 6.43968508,11.4147548 C6.56847878,10.369652 6.82606618,10.7615656 6.95485988,10.5002899 C5.92451027,8.14880866 6.43968508,5.14413823 7.59882839,2.92329487 C10.0459087,-1.38775401 15.1976568,-0.0813755654 15.970419,1.48627857 C20.8645797,0.571813659 20.735786,8.41008435 19.9630237,10.369652 C19.9630237,10.369652 20.3494048,10.5002899 20.3494048,12.3292197 C20.2206111,14.2887874 18.6750867,15.464528 18.6750867,15.464528 C18.6750867,15.9870794 18.0311182,17.5547335 17.0007686,18.9917498 C16.0992127,20.8206796 17.9023245,21.2125931 17.9023245,21.2125931 C22.5388978,22.1270581 26.7890899,24.739815 26.7890899,27.6138475 C26.7890899,27.8751232 26.7890899,29.8346909 26.7890899,29.8346909 C26.7890899,31.6636207 19.83423,33.6231884 13.394545,33.6231884 C7.08365359,33.6231884 0,32.9699992 0,29.9653288 Z"></path>
                </g>
            </g>
        </g>
    </g>
</svg>