<?xml version="1.0" encoding="UTF-8"?>
<svg width="11px" height="13px" viewBox="0 0 11 13" version="1.1" xmlns="http://www.w3.org/2000/svg" xmlns:xlink="http://www.w3.org/1999/xlink">
    <!-- Generator: Sketch 45.2 (43514) - http://www.bohemiancoding.com/sketch -->
    <title>Slice 1</title>
    <desc>Created with Sketch.</desc>
    <defs></defs>
    <g id="Page-1" stroke="none" stroke-width="1" fill="none" fill-rule="evenodd">
        <path d="M4.4960938,0 C3.6752813,0 3,0.6752812 3,1.4960938 L3,2 L0.5,2 L0,2 L0,3 L0.5,3 L1,3 L1,11.5 C1,12.322531 1.6774686,13 2.5,13 L8.5,13 C9.322531,13 10,12.322531 10,11.5 L10,3 L10.5,3 L11,3 L11,2 L10.5,2 L8,2 L8,1.4960938 C8,0.6752812 7.3247187,0 6.5039062,0 L4.4960938,0 Z M4.4960938,1 L6.5039062,1 C6.7850939,1 7,1.2149062 7,1.4960938 L7,3 L9,3 L9,11.5 C9,11.781469 8.781469,12 8.5,12 L2.5,12 C2.2185314,12 2,11.781469 2,11.5 L2,3 L4,3 L4,1.4960938 C4,1.2149062 4.2149062,1 4.4960938,1 Z M3,4 L3,11 L4,11 L4,4 L3,4 Z M5,4 L5,11 L6,11 L6,4 L5,4 Z M7,4 L7,11 L8,11 L8,4 L7,4 Z" id="Shape" fill="#DE5A5A" fill-rule="nonzero"></path>
    </g>
</svg>