<?xml version="1.0" encoding="UTF-8"?>
<svg width="14px" height="13px" viewBox="0 0 14 13" version="1.1" xmlns="http://www.w3.org/2000/svg" xmlns:xlink="http://www.w3.org/1999/xlink">
    <!-- Generator: Sketch 45.2 (43514) - http://www.bohemiancoding.com/sketch -->
    <title>Slice 1</title>
    <desc>Created with Sketch.</desc>
    <defs></defs>
    <g id="Page-1" stroke="none" stroke-width="1" fill="none" fill-rule="evenodd">
        <path d="M5.5,0 C4.6774686,0 4,0.6774686 4,1.5 L4,2 L1.5,2 C0.6774686,2 0,2.6774686 0,3.5 L0,11.5 C0,12.322531 0.6774686,13 1.5,13 L12.5,13 C13.322531,13 14,12.322531 14,11.5 L14,3.5 C14,2.6774686 13.322531,2 12.5,2 L10,2 L10,1.5 C10,0.6774686 9.322531,0 8.5,0 L5.5,0 Z M5.5,1 L8.5,1 C8.7814686,1 9,1.2185314 9,1.5 L9,2 L5,2 L5,1.5 C5,1.2185314 5.2185314,1 5.5,1 Z M1.5,3 L12.5,3 C12.781469,3 13,3.2185314 13,3.5 L13,8 L1,8 L1,3.5 C1,3.2185314 1.2185314,3 1.5,3 Z M6,6 L6,7 L8,7 L8,6 L6,6 Z M1,9 L13,9 L13,11.5 C13,11.781469 12.781469,12 12.5,12 L1.5,12 C1.2185314,12 1,11.781469 1,11.5 L1,9 Z" id="Shape" fill="#FFFFFF" fill-rule="nonzero"></path>
    </g>
</svg>