<?xml version="1.0" encoding="UTF-8"?>
<svg width="13px" height="13px" viewBox="0 0 13 13" version="1.1" xmlns="http://www.w3.org/2000/svg" xmlns:xlink="http://www.w3.org/1999/xlink">
    <!-- Generator: Sketch 46.2 (44496) - http://www.bohemiancoding.com/sketch -->
    <title>Slice 1</title>
    <desc>Created with Sketch.</desc>
    <defs></defs>
    <g id="Page-1" stroke="none" stroke-width="1" fill="none" fill-rule="evenodd">
        <path d="M2,0 L2,1 L1.5,1 C0.675781,1 0,1.675781 0,2.5 L0,11.5 C0,12.324219 0.675781,13 1.5,13 L11.5,13 C12.324219,13 13,12.324219 13,11.5 L13,2.5 C13,1.675781 12.324219,1 11.5,1 L11,1 L11,0 L10,0 L10,1 L3,1 L3,0 L2,0 Z M1.5,2 L2,2 L2,3 L3,3 L3,2 L10,2 L10,3 L11,3 L11,2 L11.5,2 C11.78125,2 12,2.21875 12,2.5 L12,4 L1,4 L1,2.5 C1,2.21875 1.21875,2 1.5,2 Z M1,5 L12,5 L12,11.5 C12,11.78125 11.78125,12 11.5,12 L1.5,12 C1.21875,12 1,11.78125 1,11.5 L1,5 Z" id="Shape-Copy-3" fill="#4174D7" fill-rule="nonzero"></path>
    </g>
</svg>