<?xml version="1.0" encoding="UTF-8"?>
<svg width="20px" height="20px" viewBox="0 0 20 20" version="1.1" xmlns="http://www.w3.org/2000/svg" xmlns:xlink="http://www.w3.org/1999/xlink">
    <!-- Generator: Sketch 46.2 (44496) - http://www.bohemiancoding.com/sketch -->
    <title>Slice 1</title>
    <desc>Created with Sketch.</desc>
    <defs></defs>
    <g id="Page-1" stroke="none" stroke-width="1" fill="none" fill-rule="evenodd">
        <path d="M13.875,0 L2.21875,11.625 L2.03125,11.8125 L1.96875,12.09375 L0.40625,18.3125 L0,19.9375 L1.625,19.53125 L7.84375,17.96875 L8.125,17.90625 L20,6.03125 L18.59375,4.59375 L8.59375,14.59375 C8.1875,14.089844 7.566406,13.613281 6.71875,13.28125 C6.4375,12.363281 5.921875,11.695313 5.375,11.3125 L15.28125,1.40625 L13.875,0 Z M3.90625,12.78125 C3.996094,12.796875 4.113281,12.839844 4.25,12.90625 C4.523438,13.042969 4.804688,13.253906 4.9375,14.15625 L5.03125,14.8125 L5.6875,14.96875 C6.566406,15.1875 6.921875,15.589844 7.125,15.9375 C7.148438,15.976563 7.136719,15.996094 7.15625,16.03125 L7.09375,16.09375 L4.3125,16.78125 L3.15625,15.625 L3.84375,12.84375 L3.90625,12.78125 Z" id="Shape" fill="#FFFFFF" fill-rule="nonzero"></path>
    </g>
</svg>