<?xml version="1.0" encoding="UTF-8"?>
<svg width="14px" height="13px" viewBox="0 0 14 13" version="1.1" xmlns="http://www.w3.org/2000/svg" xmlns:xlink="http://www.w3.org/1999/xlink">
    <!-- Generator: Sketch 46.2 (44496) - http://www.bohemiancoding.com/sketch -->
    <title>Untitled</title>
    <desc>Created with Sketch.</desc>
    <defs></defs>
    <g id="Page-1" stroke="none" stroke-width="1" fill="none" fill-rule="evenodd">
        <path d="M1.5,0 C0.675781,0 0,0.675781 0,1.5 L0,11.5 C0,12.324219 0.675781,13 1.5,13 L11.5,13 C12.324219,13 13,12.324219 13,11.5 L13,9 L12,10 L12,11.5 C12,11.78125 11.78125,12 11.5,12 L1.5,12 C1.21875,12 1,11.78125 1,11.5 L1,1.5 C1,1.21875 1.21875,1 1.5,1 L11.5,1 C11.78125,1 12,1.21875 12,1.5 L12,3 L13,4 L13,1.5 C13,0.675781 12.324219,0 11.5,0 L1.5,0 Z M9.730469,3.023438 L9.019531,3.726563 L11.292969,6 L4,6 L4,7 L11.292969,7 L9.019531,9.269531 L9.730469,9.980469 L13.207031,6.5 L9.730469,3.023438 Z" id="Shape" fill="#000000" fill-rule="nonzero"></path>
    </g>
</svg>