<?xml version="1.0" encoding="UTF-8"?>
<svg width="13px" height="13px" viewBox="0 0 13 13" version="1.1" xmlns="http://www.w3.org/2000/svg" xmlns:xlink="http://www.w3.org/1999/xlink">
    <!-- Generator: Sketch 45.2 (43514) - http://www.bohemiancoding.com/sketch -->
    <title>Slice 1</title>
    <desc>Created with Sketch.</desc>
    <defs></defs>
    <g id="Page-1" stroke="none" stroke-width="1" fill="none" fill-rule="evenodd">
        <path d="M6.46599929,0 C2.90644907,0 0,2.9217323 0,6.5 C0,10.078268 2.90644907,13 6.46599929,13 C9.82783646,13 12.6057213,10.399118 12.9028548,7.0898438 L13,6 L6.96338385,6 L6.96338385,8 L10.6141089,8 C9.99497955,9.734876 8.4144667,11 6.46599929,11 C3.98133232,11 1.98953824,8.9977323 1.98953824,6.5 C1.98953824,4.0022677 3.98133232,2 6.46599929,2 C7.65254726,2 8.71871295,2.4592832 9.52025086,3.2109375 L10.8783445,1.7480469 C9.72416759,0.6657012 8.1662713,0 6.46599929,0 Z" id="Shape" fill="#F05F5F" fill-rule="nonzero"></path>
    </g>
</svg>