<?xml version="1.0" encoding="UTF-8"?>
<svg width="102px" height="19px" viewBox="0 0 102 19" version="1.1" xmlns="http://www.w3.org/2000/svg" xmlns:xlink="http://www.w3.org/1999/xlink">
    <!-- Generator: Sketch 45.2 (43514) - http://www.bohemiancoding.com/sketch -->
    <title>Slice 1</title>
    <desc>Created with Sketch.</desc>
    <defs></defs>
    <g id="Page-1" stroke="none" stroke-width="1" fill="none" fill-rule="evenodd">
        <g id="Group-5">
            <path d="M32.3669143,15.5228758 L27.4456522,15.5228758 L27.4456522,3.35294118 L32.3669143,3.35294118 C34.3777526,3.35294118 36.0181733,3.92666667 37.2881764,5.05673203 C38.5581795,6.18679739 39.1931811,7.64718954 39.1931811,9.4379085 C39.1931811,11.2286275 38.5581795,12.7064052 37.2881764,13.8364706 C36.0181733,14.9665359 34.3777526,15.5228758 32.3669143,15.5228758 Z M30.62066,6.09986928 L30.62066,12.7759477 L32.1376082,12.7759477 C34.536503,12.7759477 35.9123397,11.5763399 35.9123397,9.4379085 C35.9123397,7.29947712 34.536503,6.09986928 32.1376082,6.09986928 L30.62066,6.09986928 Z M45.4902799,15.7488889 C44.0968043,15.7488889 42.9149958,15.331634 41.9448546,14.4971242 C40.9747133,13.6452288 40.4984621,12.5151634 40.4984621,11.1069281 C40.4984621,9.80300654 40.9394354,8.6903268 41.8037431,7.80366013 C42.6680508,6.91699346 43.8145814,6.46496732 45.2433349,6.46496732 C46.513338,6.46496732 47.554035,6.89960784 48.347787,7.76888889 C49.1591779,8.62078431 49.5648733,9.73346405 49.5648733,11.0895425 L49.5648733,11.8545098 L43.5676363,11.8545098 C43.8322203,12.7759477 44.8905563,13.2279739 46.1781983,13.2279739 C47.1483396,13.2279739 48.1184809,12.9671895 49.0533443,12.4630065 L49.0533443,14.827451 C48.2066755,15.4359477 47.0248671,15.7488889 45.4902799,15.7488889 Z M43.5499974,10.2202614 L46.513338,10.2202614 C46.4956991,9.33359477 45.8606975,8.72509804 45.1022234,8.72509804 C44.2731936,8.72509804 43.6734699,9.29882353 43.5499974,10.2202614 Z M53.7629392,15.7488889 C52.7927979,15.7488889 51.999046,15.470719 51.3993223,14.9317647 C50.7995986,14.3928105 50.4997367,13.68 50.4997367,12.810719 C50.5173757,10.8113725 52.3518246,9.90732026 53.9922453,9.95947712 C54.8918309,9.95947712 55.650305,10.1159477 56.2676676,10.4115033 L56.2676676,10.2898039 C56.2676676,9.66392157 56.0030836,9.24666667 55.5268324,9.09019608 C55.0858591,8.93372549 54.7330805,8.88156863 54.1862736,8.88156863 C53.2514102,8.88156863 52.3694636,9.09019608 51.5757116,9.5248366 L51.5757116,7.10823529 C52.510575,6.67359477 53.6394667,6.46496732 54.9447477,6.46496732 C56.2676676,6.46496732 57.3260035,6.79529412 58.1373944,7.43856209 C58.9487853,8.08183007 59.3544808,8.93372549 59.3544808,10.0290196 L59.3544808,12.7064052 C59.3544808,13.0193464 59.5308701,13.175817 59.8836487,13.175817 C60.0953159,13.175817 60.2717052,13.1410458 60.3951778,13.0715033 L60.3951778,15.2620915 C60.0071213,15.5576471 59.4779533,15.7141176 58.8076739,15.7141176 C57.7669769,15.7141176 57.0261417,15.3837908 56.6204463,14.7057516 C55.89725,15.4011765 54.9447477,15.7488889 53.7629392,15.7488889 Z M54.8212752,13.68 C55.4562767,13.68 55.9325279,13.4192157 56.2676676,12.9150327 L56.2676676,11.9935948 C55.914889,11.7328105 55.4739157,11.6111111 54.9623866,11.6111111 C54.1862736,11.6111111 53.568911,12.028366 53.568911,12.671634 C53.568911,13.2975163 54.1157179,13.68 54.8212752,13.68 Z M64.3815765,15.7488889 C65.0871338,15.7488889 65.6692185,15.6445752 66.1101918,15.4185621 L66.1101918,13.0019608 C65.9514415,13.0888889 65.7750521,13.1236601 65.5810239,13.1236601 C65.1576895,13.1236601 64.9460223,12.8976471 64.9460223,12.4456209 L64.9460223,3.35294118 L61.8239313,3.35294118 L61.8239313,13.175817 C61.8239313,14.8969935 62.6706,15.7488889 64.3815765,15.7488889 Z M72.5307632,15.5228758 L68.1739469,15.5228758 L68.1739469,3.35294118 L72.5307632,3.35294118 C74.5239626,3.35294118 76.1291054,3.92666667 77.3814696,5.05673203 C78.6338338,6.18679739 79.2688354,7.64718954 79.2688354,9.4379085 C79.2688354,11.2286275 78.6338338,12.7064052 77.3814696,13.8364706 C76.1291054,14.9665359 74.5239626,15.5228758 72.5307632,15.5228758 Z M70.1142295,5.10888889 L70.1142295,13.7669281 L72.3543739,13.7669281 C73.888961,13.7669281 75.1060473,13.3844444 75.970355,12.6020915 C76.8346627,11.8197386 77.275636,10.7766013 77.275636,9.4379085 C77.275636,8.09921569 76.8346627,7.05607843 75.970355,6.27372549 C75.1060473,5.49137255 73.888961,5.10888889 72.3543739,5.10888889 L70.1142295,5.10888889 Z M81.1032843,11.2460131 C81.1032843,9.97686275 81.5089798,8.89895425 82.3380096,8.04705882 C83.1670394,7.1951634 84.2253754,6.76052288 85.5482953,6.76052288 C86.4302419,6.76052288 87.188716,6.98653595 87.8237175,7.45594771 C89.1113596,8.36 89.6581665,9.76823529 89.6581665,11.3155556 L89.6581665,11.8023529 L83.025928,11.8023529 C83.2552341,13.2453595 84.5252372,14.0972549 86.2891304,14.0972549 C87.2945496,14.0972549 88.2117741,13.8364706 89.0760817,13.3322876 L89.0760817,14.9143791 C88.2823298,15.470719 87.2239938,15.7488889 85.883435,15.7488889 C84.5428761,15.7488889 83.4139845,15.331634 82.4791211,14.4971242 C81.5618966,13.6626144 81.1032843,12.5847059 81.1032843,11.2460131 Z M83.0435669,10.376732 L87.7355229,10.376732 C87.717884,9.8551634 87.5238557,9.38575163 87.1181603,8.96849673 C86.7124648,8.55124183 86.1656579,8.34261438 85.4601006,8.34261438 C84.066625,8.34261438 83.1670394,9.26405229 83.0435669,10.376732 Z M96.8019341,6.76052288 C98.0190204,6.76052288 99.0244396,7.1951634 99.8181915,8.06444444 C100.611943,8.93372549 101,9.99424837 101,11.2633987 C101,12.5151634 100.611943,13.5756863 99.8181915,14.4449673 C99.0244396,15.3142484 98.0190204,15.7488889 96.8019341,15.7488889 C95.4613752,15.7488889 94.4383172,15.2794771 93.7151209,14.3580392 L93.7151209,19 L91.8101163,19 L91.8101163,6.98653595 L93.7151209,6.98653595 L93.7151209,8.15137255 C94.4383172,7.22993464 95.4613752,6.76052288 96.8019341,6.76052288 Z M96.2904051,8.41215686 C95.1615134,8.41215686 94.1913721,9.05542484 93.7151209,9.9420915 L93.7151209,12.5847059 C94.1913721,13.4366013 95.1615134,14.0972549 96.2904051,14.0972549 C97.084157,14.0972549 97.7544365,13.819085 98.2836044,13.2801307 C98.8127724,12.7237908 99.0773564,12.0457516 99.0773564,11.2633987 C99.0773564,10.4636601 98.8127724,9.78562092 98.2836044,9.24666667 C97.7544365,8.6903268 97.084157,8.41215686 96.2904051,8.41215686 Z" id="DealDep" fill="#373737"></path>
            <g id="Group">
                <path d="M5.18173913,16.9882353 L0,16.9882353 L0,4.47058824 L5.18173913,4.47058824 C7.20173913,4.47058824 8.83530435,5.06070588 10.1175652,6.22305882 C11.3998261,7.38541176 12.0321739,8.88752941 12.0321739,10.7294118 C12.0321739,12.5712941 11.3998261,14.0734118 10.1175652,15.2357647 C8.83530435,16.3981176 7.20173913,16.9882353 5.18173913,16.9882353 Z" id="D" fill="#C25FBD"></path>
                <path d="M9.57304348,12.5176471 L4.39130435,12.5176471 L4.39130435,0 L9.57304348,0 C11.5930435,0 13.2266087,0.590117647 14.5088696,1.75247059 C15.7911304,2.91482353 16.4234783,4.41694118 16.4234783,6.25882353 C16.4234783,8.10070588 15.7911304,9.60282353 14.5088696,10.7651765 C13.2266087,11.9275294 11.5930435,12.5176471 9.57304348,12.5176471 Z" id="D-Copy" fill="#4174D7"></path>
            </g>
        </g>
    </g>
</svg>