<?xml version="1.0" encoding="UTF-8"?>
<svg width="20px" height="20px" viewBox="0 0 20 20" version="1.1" xmlns="http://www.w3.org/2000/svg" xmlns:xlink="http://www.w3.org/1999/xlink">
    <!-- Generator: Sketch 45.2 (43514) - http://www.bohemiancoding.com/sketch -->
    <title>Untitled</title>
    <desc>Created with Sketch.</desc>
    <defs></defs>
    <g id="Page-1" stroke="none" stroke-width="1" fill="none" fill-rule="evenodd">
        <g id="icons8-sad" fill-rule="nonzero" fill="#000000">
            <path d="M10,0 C4.4666667,0 0,4.4666667 0,10 C0,15.533333 4.4666667,20 10,20 C15.533333,20 20,15.533333 20,10 C20,4.4666667 15.533333,0 10,0 Z M10,2 C14.466667,2 18,5.5333333 18,10 C18,14.466667 14.466667,18 10,18 C5.5333333,18 2,14.466667 2,10 C2,5.5333333 5.5333333,2 10,2 Z M7,6 C5.8954305,6 5,6.8954305 5,8 C5,9.104569 5.8954305,10 7,10 C8.104569,10 9,9.104569 9,8 C9,6.8954305 8.104569,6 7,6 Z M13,6 C11.895431,6 11,6.8954305 11,8 C11,9.104569 11.895431,10 13,10 C14.104569,10 15,9.104569 15,8 C15,6.8954305 14.104569,6 13,6 Z M10,11 C7.9862745,11 6.2544683,11.990074 5.1875,13.53125 L6.8125,14.65625 C7.5455317,13.597426 8.613725,13 10,13 C11.386275,13 12.454468,13.597426 13.1875,14.65625 L14.8125,13.53125 C13.745532,11.990074 12.013725,11 10,11 Z" id="Shape"></path>
        </g>
    </g>
</svg>