<?xml version="1.0" encoding="UTF-8"?>
<svg width="18px" height="23px" viewBox="0 0 18 23" version="1.1" xmlns="http://www.w3.org/2000/svg" xmlns:xlink="http://www.w3.org/1999/xlink">
    <!-- Generator: Sketch 45.2 (43514) - http://www.bohemiancoding.com/sketch -->
    <title>Slice 1</title>
    <desc>Created with Sketch.</desc>
    <defs></defs>
    <g id="Page-1" stroke="none" stroke-width="1" fill="none" fill-rule="evenodd">
        <path d="M0,0 L0,1.75862069 L0.879310345,1.75862069 L1.75862069,1.75862069 L1.75862069,5.27586207 C1.75862069,7.93966787 3.26882354,10.2374435 5.46134168,11.4310345 C3.26882354,12.6246255 1.75862069,14.9224011 1.75862069,17.5862069 L1.75862069,21.1034483 L0.879310345,21.1034483 L0,21.1034483 L0,22.862069 L0.879310345,22.862069 L16.7068966,22.862069 L17.5862069,22.862069 L17.5862069,21.1034483 L16.7068966,21.1034483 L15.8275862,21.1034483 L15.8275862,17.5862069 C15.8275862,14.9224011 14.317383,12.6246255 12.1248652,11.4310345 C14.317383,10.2374435 15.8275862,7.93966787 15.8275862,5.27586207 L15.8275862,1.75862069 L16.7068966,1.75862069 L17.5862069,1.75862069 L17.5862069,0 L16.7068966,0 L0.879310345,0 L0,0 Z M3.51724138,1.75862069 L14.0689655,1.75862069 L14.0689655,5.27586207 C14.0689655,8.20006314 11.7173045,10.5517241 8.79310345,10.5517241 C5.86890238,10.5517241 3.51724138,8.20006314 3.51724138,5.27586207 L3.51724138,1.75862069 Z M5.27586207,3.51724138 L5.27586207,5.27586207 C5.27586207,7.21562069 6.85334483,8.79310345 8.79310345,8.79310345 C10.7328621,8.79310345 12.3103448,7.21562069 12.3103448,5.27586207 L12.3103448,3.51724138 L5.27586207,3.51724138 Z M8.79310345,12.3103448 C11.7173045,12.3103448 14.0689655,14.6620058 14.0689655,17.5862069 L14.0689655,21.1034483 L3.51724138,21.1034483 L3.51724138,17.5862069 C3.51724138,14.6620058 5.86890238,12.3103448 8.79310345,12.3103448 Z" id="Shape" fill="#FFFFFF" fill-rule="nonzero"></path>
    </g>
</svg>