<?xml version="1.0" encoding="UTF-8"?>
<svg width="14px" height="12px" viewBox="0 0 14 12" version="1.1" xmlns="http://www.w3.org/2000/svg" xmlns:xlink="http://www.w3.org/1999/xlink">
    <!-- Generator: Sketch 46.2 (44496) - http://www.bohemiancoding.com/sketch -->
    <title>Slice 1</title>
    <desc>Created with Sketch.</desc>
    <defs></defs>
    <g id="Page-1" stroke="none" stroke-width="1" fill="none" fill-rule="evenodd">
        <path d="M3,0 C2.082031,0 1.273438,0.496094 0.765625,1.296875 C0.257813,2.09375 0,3.183594 0,4.5 C0,5.351563 0.210938,6.386719 0.59375,7.273438 C0.75,7.628906 0.957031,7.925781 1.179688,8.207031 C0.691406,8.59375 0.007813,9.1875 0.007813,9.1875 L0.492188,10.0625 C0.492188,10.0625 1.34375,9.367188 2.039063,8.78125 C2.199219,8.84375 2.316406,9 2.5,9 C3.707031,9 5.023438,8.550781 6.1875,7.914063 C6.238281,8.128906 6.277344,8.34375 6.398438,8.527344 C6.570313,8.785156 6.902344,9 7.25,9 C8.5,9 9.34375,8.085938 9.933594,7.300781 C10.226563,6.90625 10.472656,6.527344 10.667969,6.273438 C10.703125,6.226563 10.722656,6.214844 10.753906,6.179688 C10.78125,6.296875 10.804688,6.402344 10.828125,6.566406 C10.859375,6.816406 10.890625,7.078125 10.972656,7.34375 C11.015625,7.472656 11.074219,7.609375 11.191406,7.746094 C11.3125,7.882813 11.535156,8 11.75,8 C11.964844,8 12.152344,7.90625 12.277344,7.804688 C12.402344,7.699219 12.488281,7.589844 12.566406,7.476563 C12.726563,7.246094 12.859375,6.996094 13.003906,6.765625 C13.152344,6.539063 13.308594,6.332031 13.46875,6.199219 C13.628906,6.066406 13.777344,6 14,6 L14,5 C13.535156,5 13.132813,5.183594 12.835938,5.425781 C12.539063,5.667969 12.332031,5.960938 12.160156,6.234375 C12.039063,6.425781 11.953125,6.566406 11.867188,6.710938 C11.851563,6.609375 11.832031,6.550781 11.816406,6.433594 C11.785156,6.183594 11.757813,5.914063 11.664063,5.648438 C11.617188,5.515625 11.558594,5.375 11.433594,5.242188 C11.304688,5.109375 11.085938,5 10.875,5 C10.613281,5 10.417969,5.121094 10.265625,5.242188 C10.117188,5.363281 10,5.507813 9.878906,5.664063 C9.636719,5.972656 9.398438,6.34375 9.128906,6.699219 C8.59375,7.414063 8,8 7.25,8 C7.222656,8 7.273438,8.035156 7.234375,7.972656 C7.191406,7.910156 7.125,7.742188 7.085938,7.507813 C7.078125,7.46875 7.082031,7.394531 7.078125,7.351563 C8.140625,6.585938 9,5.644531 9,4.5 C9,4.167969 8.921875,3.820313 8.695313,3.515625 C8.472656,3.214844 8.074219,3 7.625,3 C7.125,3 6.660156,3.316406 6.394531,3.78125 C6.128906,4.246094 6,4.855469 6,5.625 C6,6.058594 6.039063,6.460938 6.0625,6.878906 C5.09375,7.46875 3.9375,7.835938 2.921875,7.925781 C3.980469,6.6875 5,4.949219 5,2.625 C5,2.09375 4.902344,1.492188 4.609375,0.96875 C4.3125,0.445313 3.738281,0 3,0 Z M3,1 C3.386719,1 3.5625,1.15625 3.734375,1.460938 C3.910156,1.765625 4,2.230469 4,2.625 C4,4.851563 2.972656,6.476563 1.945313,7.578125 C1.792969,7.386719 1.640625,7.167969 1.511719,6.875 C1.191406,6.136719 1,5.175781 1,4.5 C1,3.316406 1.242188,2.40625 1.609375,1.828125 C1.976563,1.253906 2.417969,1 3,1 Z M7.625,4 C7.800781,4 7.839844,4.039063 7.898438,4.117188 C7.953125,4.191406 8,4.339844 8,4.5 C8,4.980469 7.585938,5.542969 7.023438,6.085938 C7.019531,5.917969 7,5.796875 7,5.625 C7,4.976563 7.121094,4.523438 7.261719,4.28125 C7.402344,4.035156 7.5,4 7.625,4 Z M0,11 L0,12 L14,12 L14,11 L0,11 Z" id="Shape" fill="#CDDC39" fill-rule="nonzero"></path>
    </g>
</svg>