<?xml version="1.0" encoding="UTF-8"?>
<svg width="14px" height="12px" viewBox="0 0 14 12" version="1.1" xmlns="http://www.w3.org/2000/svg" xmlns:xlink="http://www.w3.org/1999/xlink">
    <!-- Generator: Sketch 45.2 (43514) - http://www.bohemiancoding.com/sketch -->
    <title>Slice 1</title>
    <desc>Created with Sketch.</desc>
    <defs></defs>
    <g id="Page-1" stroke="none" stroke-width="1" fill="none" fill-rule="evenodd">
        <path d="M3,0 C2.0833333,0 1.2747084,0.4949337 0.765625,1.2949219 C0.2565416,2.0949101 0,3.1833333 0,4.5 C0,5.3516904 0.210765,6.3886276 0.59375,7.2714844 C0.7482447,7.6276255 0.9579249,7.9270688 1.1816406,8.208984 C0.6931863,8.593705 0.0058594,9.189453 0.0058594,9.189453 L0.4941406,10.060547 C0.4941406,10.060547 1.3423125,9.365739 2.0390625,8.779297 C2.2006181,8.844346 2.3158575,9 2.5,9 C3.7086299,9 5.0232759,8.550267 6.1855469,7.9160156 C6.2369615,8.127947 6.2777856,8.3428 6.4003906,8.527344 C6.570451,8.783316 6.9006111,9 7.25,9 C8.5,9 9.342474,8.086337 9.931641,7.3007812 C10.226224,6.9080036 10.471651,6.5277989 10.667969,6.2753906 C10.704689,6.2281766 10.723579,6.2147164 10.755859,6.1777344 C10.780459,6.2967076 10.806435,6.4024323 10.828125,6.5664062 C10.861035,6.8152289 10.888875,7.0788805 10.974609,7.3417969 C11.017479,7.4732551 11.072499,7.6106485 11.193359,7.7460938 C11.314216,7.8815388 11.535679,8 11.75,8 C11.964321,8 12.151597,7.904834 12.277344,7.8027344 C12.403091,7.7006344 12.488417,7.5886361 12.568359,7.4746094 C12.728244,7.2465559 12.860189,6.9979782 13.005859,6.7675781 C13.15153,6.5371781 13.307698,6.3311835 13.46875,6.1992188 C13.629802,6.0672539 13.777462,6 14,6 L14,5 C13.535038,5 13.132542,5.1827461 12.835938,5.4257812 C12.539333,5.6688165 12.330611,5.9628219 12.160156,6.2324219 C12.038506,6.4248297 11.954436,6.5665504 11.867188,6.7089844 C11.850917,6.6108604 11.833609,6.5489183 11.818359,6.4335938 C11.785142,6.1824163 11.755994,5.9145806 11.664062,5.6484375 C11.618098,5.5153659 11.557372,5.3756552 11.431641,5.2421875 C11.305909,5.1087198 11.086458,5 10.875,5 C10.614583,5 10.416351,5.1196691 10.267578,5.2421875 C10.118806,5.3647059 9.999497,5.5070635 9.878906,5.6621094 C9.637724,5.9722011 9.398776,6.3419964 9.130859,6.6992188 C8.5950264,7.4136631 8,8 7.25,8 C7.2243889,8 7.273299,8.034184 7.2324219,7.9726562 C7.1915448,7.9111287 7.1264689,7.7438751 7.0859375,7.5097656 C7.0790483,7.4699734 7.0839638,7.3927021 7.078125,7.3496094 C8.1396715,6.5863028 9,5.6430458 9,4.5 C9,4.1696392 8.9219943,3.8190142 8.6972656,3.5175781 C8.4725369,3.2161421 8.0732333,3 7.625,3 C7.1239667,3 6.6610568,3.3167577 6.3945312,3.78125 C6.1280059,4.2457423 6,4.8572318 6,5.625 C6,6.0576876 6.0398631,6.4613156 6.0625,6.8789062 C5.0956133,7.4675494 3.9356443,7.8356719 2.9238281,7.9257812 C3.9821271,6.6877439 5,4.9490011 5,2.625 C5,2.0940782 4.9034184,1.4933348 4.6074219,0.96875 C4.3114253,0.4441652 3.7399815,0 3,0 Z M3,1 C3.3850185,1 3.5635747,1.1547723 3.7363281,1.4609375 C3.9090816,1.7671027 4,2.2289218 4,2.625 C4,4.8499703 2.971231,6.4754945 1.9433594,7.5761719 C1.7938231,7.3856304 1.6404426,7.1697813 1.5117188,6.8730469 C1.1927036,6.1376536 1,5.1753096 1,4.5 C1,3.3166667 1.2434584,2.4050899 1.609375,1.8300781 C1.9752916,1.2550663 2.4166667,1 3,1 Z M7.625,4 C7.8017667,4 7.8399631,4.0394204 7.8964844,4.1152344 C7.9530057,4.1910483 8,4.3393608 8,4.5 C8,4.982014 7.5841956,5.5441947 7.0214844,6.0859375 C7.0198143,5.9162638 7,5.7984007 7,5.625 C7,4.9747682 7.1219941,4.5228046 7.2617188,4.2792969 C7.4014432,4.0357892 7.5010333,4 7.625,4 Z M0,11 L0,12 L14,12 L14,11 L0,11 Z" id="Shape" fill="#FFFFFF" fill-rule="nonzero"></path>
    </g>
</svg>