<?xml version="1.0" encoding="UTF-8"?>
<svg width="52px" height="52px" viewBox="0 0 52 52" version="1.1" xmlns="http://www.w3.org/2000/svg" xmlns:xlink="http://www.w3.org/1999/xlink">
    <!-- Generator: Sketch 45.2 (43514) - http://www.bohemiancoding.com/sketch -->
    <title>Untitled</title>
    <desc>Created with Sketch.</desc>
    <defs>
        <circle id="path-1" cx="25.5" cy="25.5" r="25.5"></circle>
        <mask id="mask-2" maskContentUnits="userSpaceOnUse" maskUnits="objectBoundingBox" x="0" y="0" width="51" height="51" fill="white">
            <use xlink:href="#path-1"></use>
        </mask>
    </defs>
    <g id="Page-1" stroke="none" stroke-width="1" fill="none" fill-rule="evenodd">
        <g id="Group-4">
            <use id="Oval-3" stroke="#D1D5DC" mask="url(#mask-2)" stroke-width="2" stroke-dasharray="7" xlink:href="#path-1"></use>
            <path d="M16.7068966,14.0689655 C15.2603758,14.0689655 14.0689655,15.2603758 14.0689655,16.7068966 L15.8275862,16.7068966 C15.8275862,16.2119 16.2119,15.8275862 16.7068966,15.8275862 C17.2018931,15.8275862 17.5862069,16.2119 17.5862069,16.7068966 C17.5862069,17.062685 17.3770552,17.3592068 17.0847253,17.5003368 C16.4234788,17.8159698 15.8275862,18.4931779 15.8275862,19.3654365 L15.8275862,21.1034483 L17.5862069,21.1034483 L17.5862069,19.3654365 C17.5862069,19.2750925 17.6338075,19.1905751 17.8438174,19.090652 L17.8438174,19.0872171 C18.7320283,18.6616105 19.3448276,17.750009 19.3448276,16.7068966 C19.3448276,15.2603758 18.1534173,14.0689655 16.7068966,14.0689655 Z M25.5,14.0689655 C23.8187586,14.0689655 22.2259978,14.4452004 20.7874461,15.0994073 C20.9844116,15.5988556 21.1034483,16.1371034 21.1034483,16.7068966 C21.1034483,16.7754828 21.0829218,16.8375292 21.0794046,16.9061152 C22.4071632,16.2202533 23.9066897,15.8275862 25.5,15.8275862 C30.8321379,15.8275862 35.1724138,20.1661034 35.1724138,25.5 C35.1724138,30.8338966 30.8321379,35.1724138 25.5,35.1724138 C20.465069,35.1724138 16.3189283,31.3016897 15.8722386,26.3793103 L15.8275862,26.3793103 L14.113618,26.3793103 C14.5655835,32.2724483 19.4925517,36.9310345 25.5,36.9310345 C31.8028966,36.9310345 36.9310345,31.8028966 36.9310345,25.5 C36.9310345,19.1971034 31.8028966,14.0689655 25.5,14.0689655 Z M21.1034483,21.1412312 C20.6367804,21.1412309 20.1892472,21.4174149 19.8593999,21.9089647 C19.5295526,22.4005145 19.3444407,23.0671199 19.3448276,23.7619882 C19.3452963,25.2076998 20.1325203,26.3793105 21.1034483,26.3793103 C22.0743762,26.3793105 22.8616003,25.2076998 22.862069,23.7619882 C22.8624558,23.0671199 22.6773439,22.4005145 22.3474966,21.9089647 C22.0176493,21.4174149 21.5701162,21.1412309 21.1034483,21.1412312 Z M29.8965517,21.1412312 C29.4298838,21.1412309 28.9823507,21.4174149 28.6525034,21.9089647 C28.3226561,22.4005145 28.1375442,23.0671199 28.137931,23.7619882 C28.1383997,25.2076998 28.9256238,26.3793105 29.8965517,26.3793103 C30.8674797,26.3793105 31.6547037,25.2076998 31.6551724,23.7619882 C31.6555593,23.0671199 31.4704474,22.4005145 31.1406001,21.9089647 C30.8107528,21.4174149 30.3632196,21.1412309 29.8965517,21.1412312 Z M15.8275862,22.862069 L15.8275862,24.6206897 L17.5862069,24.6206897 L17.5862069,22.862069 L15.8275862,22.862069 Z M25.5,28.137931 C23.523499,28.137931 22.1718722,28.8415766 21.3713632,29.5805496 C20.570854,30.3195229 20.2722253,31.1468185 20.2722253,31.146822 L21.9346712,31.7238677 C21.9346712,31.7238677 22.0574513,31.3421133 22.5666756,30.8720375 C23.0758995,30.4019564 23.9223285,29.8965517 25.5,29.8965517 L29.8965517,29.8965517 L29.8965517,28.137931 L25.5,28.137931 Z" id="Shape" fill="#000000" fill-rule="nonzero"></path>
        </g>
    </g>
</svg>