<?xml version="1.0" encoding="UTF-8"?>
<svg width="13px" height="13px" viewBox="0 0 13 13" version="1.1" xmlns="http://www.w3.org/2000/svg" xmlns:xlink="http://www.w3.org/1999/xlink">
    <!-- Generator: Sketch 45.2 (43514) - http://www.bohemiancoding.com/sketch -->
    <title>Slice 1</title>
    <desc>Created with Sketch.</desc>
    <defs></defs>
    <g id="Page-1" stroke="none" stroke-width="1" fill="none" fill-rule="evenodd">
        <path d="M6.5,0 C2.9160714,0 0,2.9160714 0,6.5 C0,10.083929 2.9160714,13 6.5,13 C10.083929,13 13,10.083929 13,6.5 C13,2.9160714 10.083929,0 6.5,0 Z M6.5,1 C9.543488,1 12,3.4565116 12,6.5 C12,9.543488 9.543488,12 6.5,12 C3.4565116,12 1,9.543488 1,6.5 C1,3.4565116 3.4565116,1 6.5,1 Z M6,4 L6,4.5 L6,6 L4.5,6 L4,6 L4,7 L4.5,7 L6,7 L6,8.5 L6,9 L7,9 L7,8.5 L7,7 L8.5,7 L9,7 L9,6 L8.5,6 L7,6 L7,4.5 L7,4 L6,4 Z" id="Shape-Copy" fill="#4174D7" fill-rule="nonzero"></path>
    </g>
</svg>