<?xml version="1.0" encoding="UTF-8"?>
<svg width="13px" height="13px" viewBox="0 0 13 13" version="1.1" xmlns="http://www.w3.org/2000/svg" xmlns:xlink="http://www.w3.org/1999/xlink">
    <!-- Generator: Sketch 46.2 (44496) - http://www.bohemiancoding.com/sketch -->
    <title>Untitled</title>
    <desc>Created with Sketch.</desc>
    <defs></defs>
    <g id="Page-1" stroke="none" stroke-width="1" fill="none" fill-rule="evenodd">
        <path d="M6.5,0 C5.984375,0 5.484375,0.066406 5.007813,0.179688 L5.242188,1.152344 C5.648438,1.054688 6.070313,1 6.5,1 C7.855469,1 9.085938,1.496094 10.042969,2.304688 L9,3 L12,4 L12,1 L10.910156,1.726563 C9.75,0.65625 8.199219,0 6.5,0 Z M1,1 L1.734375,2.101563 C0.660156,3.257813 0,4.800781 0,6.5 C0,7.011719 0.058594,7.507813 0.171875,7.984375 L1.144531,7.757813 C1.050781,7.355469 1,6.933594 1,6.5 C1,5.144531 1.492188,3.914063 2.304688,2.957031 L3,4 L4,1 L1,1 Z M12.828125,5.007813 L11.855469,5.234375 C11.949219,5.640625 12,6.0625 12,6.5 C12,7.855469 11.503906,9.085938 10.695313,10.042969 L10,9 L9,12 L12,12 L11.273438,10.910156 C12.34375,9.75 13,8.199219 13,6.5 C13,5.988281 12.941406,5.484375 12.828125,5.007813 Z M1,9 L1,12 L2.09375,11.269531 C3.253906,12.34375 4.800781,13 6.5,13 C7.011719,13 7.511719,12.941406 7.992188,12.828125 L7.761719,11.855469 C7.355469,11.949219 6.933594,12 6.5,12 C5.144531,12 3.910156,11.507813 2.953125,10.699219 L4,10 L1,9 Z" id="Shape" fill="#FFFFFF" fill-rule="nonzero"></path>
    </g>
</svg>