<?xml version="1.0" encoding="UTF-8"?>
<svg width="10px" height="12px" viewBox="0 0 10 12" version="1.1" xmlns="http://www.w3.org/2000/svg" xmlns:xlink="http://www.w3.org/1999/xlink">
    <!-- Generator: Sketch 45.2 (43514) - http://www.bohemiancoding.com/sketch -->
    <title>Slice 1</title>
    <desc>Created with Sketch.</desc>
    <defs></defs>
    <g id="Page-1" stroke="none" stroke-width="1" fill="none" fill-rule="evenodd">
        <path d="M1.5,0 C0.6774686,0 0,0.6774686 0,1.5 L0,10.5 C0,11.322531 0.6774686,12 1.5,12 L8.5,12 C9.322531,12 10,11.322531 10,10.5 L10,3.2929688 L9.853516,3.1464844 L6.7070312,0 L1.5,0 Z M1.5,1 L6,1 L6,4 L9,4 L9,10.5 C9,10.781469 8.781469,11 8.5,11 L1.5,11 C1.2185314,11 1,10.781469 1,10.5 L1,1.5 C1,1.2185314 1.2185314,1 1.5,1 Z M7,1.7070312 L8.292969,3 L7,3 L7,1.7070312 Z M3,6 L3,7 L3.5,7 L6.5,7 L7,7 L7,6 L6.5,6 L3.5,6 L3,6 Z M3,8 L3,9 L3.5,9 L5.5,9 L6,9 L6,8 L5.5,8 L3.5,8 L3,8 Z" id="Shape" fill="#000000" fill-rule="nonzero"></path>
    </g>
</svg>