<?xml version="1.0" encoding="UTF-8"?>
<svg width="13px" height="13px" viewBox="0 0 13 13" version="1.1" xmlns="http://www.w3.org/2000/svg" xmlns:xlink="http://www.w3.org/1999/xlink">
    <!-- Generator: Sketch 45.2 (43514) - http://www.bohemiancoding.com/sketch -->
    <title>Slice 1</title>
    <desc>Created with Sketch.</desc>
    <defs></defs>
    <g id="Page-1" stroke="none" stroke-width="1" fill="none" fill-rule="evenodd">
        <g id="icons8-pencil" fill-rule="nonzero" fill="#000000">
            <path d="M10.1370861,0.0671074359 C9.63660306,0.0671074359 9.1348991,0.256314576 8.75648482,0.635949155 L8.7540436,0.63717008 L1.40914761,8.10291452 L0.0871394872,12.0664971 L4.05072233,10.7444892 L4.13250838,10.6639235 L11.5176874,3.39959294 L11.5176874,3.39715172 C12.2769569,2.63910286 12.2769569,1.39399833 11.5176874,0.635949155 C11.1380525,0.256314576 10.6375695,0.0671074359 10.1370861,0.0671074359 Z M10.1370861,1.03755664 C10.386107,1.03755664 10.6351279,1.13277036 10.8279972,1.32563965 C11.2125145,1.71015699 11.2137355,2.32172327 10.8279972,2.70746154 L10.0565207,3.46673101 C9.94787896,3.2018412 9.77820319,2.92108218 9.50598908,2.64764746 C9.23377497,2.37543366 8.95301626,2.20697819 8.68690553,2.09833679 L9.44983715,1.32441872 C9.64270644,1.13399097 9.88928581,1.03755664 10.1370861,1.03755664 Z M8.04238083,2.92596494 C8.22304305,2.94183416 8.48427102,3.0077513 8.81507797,3.33855856 C9.14588524,3.66936583 9.21546453,3.93059348 9.23133374,4.11125571 C9.2435405,4.24675246 9.22645098,4.26628351 9.21790607,4.28947671 L4.1727914,9.25524656 C4.06414969,9.01354964 3.89813576,8.75842536 3.64667362,8.50696291 C3.39521118,8.25550078 3.1400869,8.08948684 2.89839029,7.98084545 L7.8617186,2.93817201 C7.88613242,2.92962709 7.90688408,2.91497881 8.04238083,2.92596494 Z M2.22701024,8.79138409 C2.37837589,8.80359084 2.62007281,8.86218399 2.95576252,9.19787402 C3.29145255,9.53356404 3.3500457,9.77526065 3.36225277,9.9266263 C3.36347338,9.9424952 3.35981123,9.93150906 3.35981123,9.94493674 L2.42964506,10.2562129 C2.35640361,10.1622195 2.27705848,10.0670058 2.18184476,9.97179178 C2.08663073,9.87779867 1.99141701,9.79845385 1.8974239,9.72643302 L2.2086998,8.79382531 C2.22212748,8.79382531 2.21114134,8.79016316 2.22701024,8.79138409 Z" id="Shape"></path>
        </g>
    </g>
</svg>