<?xml version="1.0" encoding="UTF-8"?>
<svg width="14px" height="11px" viewBox="0 0 14 11" version="1.1" xmlns="http://www.w3.org/2000/svg" xmlns:xlink="http://www.w3.org/1999/xlink">
    <!-- Generator: Sketch 46.2 (44496) - http://www.bohemiancoding.com/sketch -->
    <title>Untitled</title>
    <desc>Created with Sketch.</desc>
    <defs></defs>
    <g id="Page-1" stroke="none" stroke-width="1" fill="none" fill-rule="evenodd">
        <path d="M6.625,2.19026328 C7.734375,0.982381994 8.667969,0.994071413 9.351563,0.997967553 L9.5,1.00186369 L14,0.997967553 L14,0.00049180586 L9.5,0.00438794613 L9.359375,0.00049180586 C8.582031,-0.00340433441 7.296875,-0.018989893 5.890625,1.51229098 C4.96875,0.986278135 4.148438,0.990175272 3.640625,0.997967553 L0,1.00186369 L0,1.99933944 L3.648438,1.9954433 C4.089844,1.99154716 4.613281,1.99933944 5.214844,2.29156891 L3.816406,3.90077758 L4.144531,4.22807431 C5.148438,5.2294472 6.738281,5.2489289 7.765625,4.27872813 C8.179688,3.88908916 8.828125,3.88519202 9.242188,4.27093485 L10.78125,5.70870237 C10.921875,5.84507626 11,6.0359991 11,6.23471522 C11,6.44512076 10.914063,6.63604361 10.753906,6.78800305 C10.722656,6.81917417 10.671875,6.86203371 10.640625,6.8815164 C10.527344,6.94385864 10.378906,6.98282204 10.25,6.98282204 L9.5,6.98282204 L9.5,7.30232648 L9.484375,7.38025428 C9.414063,7.72703271 9.105469,7.98029778 8.75,7.98029778 L8,7.98029778 L8,8.30369837 L7.984375,8.37773002 C7.914063,8.72450845 7.605469,8.97777353 7.25,8.97777353 L6.5,8.97777353 L6.5,9.3089664 L6.484375,9.37520577 C6.441406,9.60119587 6.285156,9.78822257 6.085938,9.8895292 C5.675781,10.0921415 5.214844,10.0064204 4.84375,9.64795255 L0.980469,5.98534629 L0,5.98534629 L0,6.98282204 L0.582031,6.98282204 L4.152344,10.3687844 C4.582031,10.7856983 5.109375,11 5.636719,11 C5.835938,11 6.03125,10.9610356 6.222656,10.8986934 L6.226563,10.9103828 C6.722656,10.7701128 7.121094,10.4233343 7.332031,9.97135314 C7.984375,9.94407816 8.558594,9.54664691 8.832031,8.97387739 C9.484375,8.94660241 10.058594,8.55306731 10.332031,7.97640164 C10.609375,7.96471222 10.894531,7.88288829 11.136719,7.7465144 L11.136719,7.75041054 C11.140625,7.7465144 11.140625,7.7465144 11.144531,7.74261826 C11.148438,7.74261826 11.152344,7.73872212 11.15625,7.73872212 L11.15625,7.73482499 C11.289063,7.65300105 11.414063,7.540006 11.441406,7.51273103 C11.542969,7.41921767 11.628906,7.31011876 11.703125,7.19712371 L12.730469,5.98534629 L14,5.98534629 L14,4.98787054 L12.5,4.98787054 C12.351563,4.98787054 12.214844,5.05410892 12.117188,5.16320783 L11.832031,5.50219397 C11.746094,5.31516727 11.628906,5.13982999 11.476563,4.98787054 L9.925781,3.54230974 C9.121094,2.79810006 7.871094,2.8019962 7.078125,3.55399915 C6.5625,4.04104761 5.816406,4.12287254 5.226563,3.80336809 L6.625,2.19026328 Z" id="Shape" fill="#FFFFFF" fill-rule="nonzero"></path>
    </g>
</svg>