<?xml version="1.0" encoding="UTF-8"?>
<svg width="44px" height="44px" viewBox="0 0 44 44" version="1.1" xmlns="http://www.w3.org/2000/svg" xmlns:xlink="http://www.w3.org/1999/xlink">
    <!-- Generator: Sketch 46.2 (44496) - http://www.bohemiancoding.com/sketch -->
    <title>Untitled</title>
    <desc>Created with Sketch.</desc>
    <defs></defs>
    <g id="Page-1" stroke="none" stroke-width="1" fill="none" fill-rule="evenodd">
        <path d="M22,0 C9.863281,0 0,9.863281 0,22 C0,34.136719 9.863281,44 22,44 C34.136719,44 44,34.136719 44,22 C44,9.863281 34.136719,0 22,0 Z M22,2 C33.058594,2 42,10.941406 42,22 C42,33.058594 33.058594,42 22,42 C10.941406,42 2,33.058594 2,22 C2,10.941406 10.941406,2 22,2 Z M31.0625,11.46875 L20.125,28.46875 L12.78125,21.84375 L11.4375,23.34375 L19.625,30.75 L20.5,31.53125 L21.125,30.53125 L32.75,12.53125 L31.0625,11.46875 Z" id="Shape" fill="#A1D17B" fill-rule="nonzero"></path>
    </g>
</svg>