<?xml version="1.0" encoding="UTF-8"?>
<svg width="13px" height="13px" viewBox="0 0 13 13" version="1.1" xmlns="http://www.w3.org/2000/svg" xmlns:xlink="http://www.w3.org/1999/xlink">
    <!-- Generator: Sketch 45.2 (43514) - http://www.bohemiancoding.com/sketch -->
    <title>Slice 1</title>
    <desc>Created with Sketch.</desc>
    <defs></defs>
    <g id="Page-1" stroke="none" stroke-width="1" fill="none" fill-rule="evenodd">
        <path d="M6.5,0 C2.9160714,0 0,2.9160714 0,6.5 C0,10.083929 2.9160714,13 6.5,13 C10.083929,13 13,10.083929 13,6.5 C13,2.9160714 10.083929,0 6.5,0 Z M6.5,1 C9.543488,1 12,3.4565116 12,6.5 C12,9.543488 9.543488,12 6.5,12 C3.4565116,12 1,9.543488 1,6.5 C1,3.4565116 3.4565116,1 6.5,1 Z M9.26208429,4 L5.45631901,7.60285626 L3.73791488,5.97607112 L3,6.67464309 L5.45631901,9 L10,4.69857197 L9.26208429,4 Z" id="Shape" fill="#FFFFFF" fill-rule="nonzero"></path>
    </g>
</svg>