<?xml version="1.0" encoding="UTF-8"?>
<svg width="14px" height="12px" viewBox="0 0 14 12" version="1.1" xmlns="http://www.w3.org/2000/svg" xmlns:xlink="http://www.w3.org/1999/xlink">
    <!-- Generator: Sketch 46.2 (44496) - http://www.bohemiancoding.com/sketch -->
    <title>Slice 1</title>
    <desc>Created with Sketch.</desc>
    <defs></defs>
    <g id="Page-1" stroke="none" stroke-width="1" fill="none" fill-rule="evenodd">
        <path d="M3,0 L3,3 L1.5,3 C0.675781,3 0,3.675781 0,4.5 L0,8.5 C0,9.324219 0.675781,10 1.5,10 L3,10 L3,12 L11,12 L11,10 L12.5,10 C13.324219,10 14,9.324219 14,8.5 L14,4.5 C14,3.675781 13.324219,3 12.5,3 L11,3 L11,0 L3,0 Z M4,1 L10,1 L10,3 L4,3 L4,1 Z M1.5,4 L12.5,4 C12.78125,4 13,4.21875 13,4.5 L13,8.5 C13,8.78125 12.78125,9 12.5,9 L11,9 L11,7 L3,7 L3,9 L1.5,9 C1.21875,9 1,8.78125 1,8.5 L1,4.5 C1,4.21875 1.21875,4 1.5,4 Z M2.5,5 C2.222656,5 2,5.222656 2,5.5 C2,5.777344 2.222656,6 2.5,6 C2.777344,6 3,5.777344 3,5.5 C3,5.222656 2.777344,5 2.5,5 Z M4,8 L10,8 L10,11 L4,11 L4,8 Z" id="Shape" fill="#000000" fill-rule="nonzero"></path>
    </g>
</svg>