<?xml version="1.0" encoding="UTF-8"?>
<svg width="17px" height="17px" viewBox="0 0 17 17" version="1.1" xmlns="http://www.w3.org/2000/svg" xmlns:xlink="http://www.w3.org/1999/xlink">
    <!-- Generator: Sketch 46.2 (44496) - http://www.bohemiancoding.com/sketch -->
    <title>Slice 1</title>
    <desc>Created with Sketch.</desc>
    <defs></defs>
    <g id="Page-1" stroke="none" stroke-width="1" fill="none" fill-rule="evenodd">
        <g id="Group-2-Copy">
            <circle id="Oval-Copy-15" stroke="#4174D7" cx="8.5" cy="8.5" r="8"></circle>
            <path d="M8.195313,5.0028176 C6.984375,5.0692246 6,6.0848496 6,7.3192246 L7,7.3192246 C7,6.5067246 7.703125,5.8739116 8.558594,6.0223496 C9.175781,6.1278176 9.65625,6.7293806 9.640625,7.3582866 C9.621094,7.9168806 9.300781,8.2684426 8.820313,8.4754746 C8.527344,8.6082866 8.246094,8.7332866 8.007813,8.9832866 C7.769531,9.2332866 7.640625,9.6043806 7.640625,9.9989116 L8.640625,9.9989116 C8.640625,9.7762556 8.667969,9.7410996 8.730469,9.6746926 C8.792969,9.6082866 8.953125,9.5145366 9.226563,9.3934426 C9.972656,9.0653176 10.609375,8.3543806 10.640625,7.3895366 C10.671875,6.2528176 9.859375,5.2293806 8.726563,5.0340676 C8.546875,5.0028176 8.371094,4.9950056 8.195313,5.0028176 Z M7.640625,10.9989116 L7.640625,11.9989116 L8.640625,11.9989116 L8.640625,10.9989116 L7.640625,10.9989116 Z" id="Shape" fill="#4174D7" fill-rule="nonzero"></path>
        </g>
    </g>
</svg>