<?xml version="1.0" encoding="UTF-8"?>
<svg width="5px" height="7px" viewBox="0 0 5 7" version="1.1" xmlns="http://www.w3.org/2000/svg" xmlns:xlink="http://www.w3.org/1999/xlink">
    <!-- Generator: Sketch 46.2 (44496) - http://www.bohemiancoding.com/sketch -->
    <title>Untitled</title>
    <desc>Created with Sketch.</desc>
    <defs></defs>
    <g id="Page-1" stroke="none" stroke-width="1" fill="none" fill-rule="evenodd">
        <path d="M2.195313,0.00281760409 C0.984375,0.0692246041 0,1.0848496 0,2.3192246 L1,2.3192246 C1,1.5067246 1.703125,0.873911604 2.558594,1.0223496 C3.175781,1.1278176 3.65625,1.7293806 3.640625,2.3582866 C3.621094,2.9168806 3.300781,3.2684426 2.820313,3.4754746 C2.527344,3.6082866 2.246094,3.7332866 2.007813,3.9832866 C1.769531,4.2332866 1.640625,4.6043806 1.640625,4.9989116 L2.640625,4.9989116 C2.640625,4.7762556 2.667969,4.7410996 2.730469,4.6746926 C2.792969,4.6082866 2.953125,4.5145366 3.226563,4.3934426 C3.972656,4.0653176 4.609375,3.3543806 4.640625,2.3895366 C4.671875,1.2528176 3.859375,0.229380604 2.726563,0.0340676041 C2.546875,0.00281760409 2.371094,-0.00499439591 2.195313,0.00281760409 Z M1.640625,5.9989116 L1.640625,6.9989116 L2.640625,6.9989116 L2.640625,5.9989116 L1.640625,5.9989116 Z" id="Shape" fill="#FFFFFF" fill-rule="nonzero"></path>
    </g>
</svg>