<?xml version="1.0" encoding="UTF-8"?>
<svg width="11px" height="14px" viewBox="0 0 11 14" version="1.1" xmlns="http://www.w3.org/2000/svg" xmlns:xlink="http://www.w3.org/1999/xlink">
    <!-- Generator: Sketch 45.2 (43514) - http://www.bohemiancoding.com/sketch -->
    <title>Slice 1</title>
    <desc>Created with Sketch.</desc>
    <defs></defs>
    <g id="Page-1" stroke="none" stroke-width="1" fill="none" fill-rule="evenodd">
        <path d="M5.50000492,0 C5.16359728,4.71806945e-06 4.82773287,0.103061709 4.54131279,0.308467561 L4.53936028,0.308467561 L3.63729159,0.960544443 L2.51458696,1.11282593 L2.49506161,1.11673053 C1.80700647,1.2705267 1.26648655,1.81099745 1.11267054,2.49897744 L1.10876554,2.51850076 L0.956468165,3.63523131 L0.298465663,4.49425481 L0.286750435,4.51573042 C-0.0913948836,5.1201647 -0.105626145,5.88921182 0.304323278,6.46219956 L0.304323278,6.46415187 L0.962325779,7.3739359 L1.15953126,8.51018966 C1.15953126,8.51018966 1.15953126,8.51214197 1.15953126,8.51214197 C1.20723052,8.93431892 1.43397109,9.29306383 1.74919529,9.54687497 L0.148120898,11.1477819 C0.00524829796,11.2907388 -0.0374696913,11.5056566 0.0398750802,11.6923757 C0.117219852,11.8790948 0.299406261,12.0008697 0.501528758,12.0009488 L2.00107161,12.0009488 L2.00107161,13.5003353 C2.00115075,13.7024366 2.12293824,13.8846039 2.30967668,13.9619407 C2.49641512,14.0392775 2.71135521,13.9965642 2.85432708,13.8537067 L5.50000492,11.2083041 L8.14568236,13.8537067 C8.28865419,13.9965644 8.50359447,14.039278 8.69033309,13.9619411 C8.8770717,13.8846043 8.99885925,13.7024368 8.99893824,13.5003353 L8.99893824,12.0009488 L10.4984811,12.0009488 C10.7006037,12.0008698 10.8827902,11.879095 10.9601351,11.6923758 C11.03748,11.5056567 10.994762,11.2907388 10.8518893,11.1477819 L9.24105243,9.53711297 C9.59008802,9.28354072 9.8443585,8.90700799 9.89514902,8.45747683 L10.0435418,7.36612649 L10.705449,6.45048556 L10.7132596,6.43681935 C11.0913783,5.83239287 11.105636,5.06138555 10.695687,4.48839781 L10.0376836,3.57666147 L9.84047868,2.49702514 C9.75928544,1.77071394 9.18031994,1.19094887 8.45418231,1.10892123 L8.45222991,1.10892123 L7.36271825,0.960544443 L6.46064956,0.308467561 L6.45869705,0.308467561 C6.17205274,0.103396572 5.83641256,-4.68808172e-06 5.50000492,0 Z M5.50000492,1.00935257 C5.63749861,1.00926891 5.7756027,1.04682024 5.87879564,1.12063524 L6.98002252,1.9171843 L8.33507862,2.10070291 L8.34093583,2.10265521 C8.61562809,2.13335675 8.81593703,2.33364439 8.84664067,2.60830771 L8.84859307,2.62392632 L9.09461207,3.97884071 L9.88343459,5.07214335 C10.029664,5.27802001 10.0424921,5.61813104 9.86586195,5.90383424 L9.08680245,6.98347067 L8.9032644,8.33838496 L8.901312,8.34424197 C8.87061136,8.61890528 8.67029843,8.81919363 8.39560617,8.84989436 L8.38193833,8.85184676 L6.9722123,9.09588751 L5.87879564,9.88657997 C5.67300318,10.0337607 5.3314689,10.0460317 5.04506551,9.86900916 L4.02779754,9.09198311 L2.66493172,8.9065119 L2.65907411,8.9045596 C2.38438215,8.87385856 2.18407292,8.67357041 2.15336898,8.3989071 L2.15141637,8.38524079 L1.90735018,6.97370896 L1.11657565,5.88235863 L1.11657565,5.88040632 C0.970345934,5.67452657 0.957520144,5.33441863 1.1341484,5.04871544 L1.91125519,4.03155354 L2.09088803,2.71568567 C2.16162086,2.40449271 2.40056702,2.16557147 2.71179244,2.09484601 L4.01998732,1.9171843 L5.1231667,1.12063524 C5.22562797,1.0471552 5.36251124,1.00943634 5.50000492,1.00935257 Z M8.18863826,9.89829318 L9.29181795,11.0013578 L8.49909062,11.0013578 C8.22304384,11.0013854 7.9992706,11.2251353 7.999243,11.5011533 L7.999243,12.293798 L6.42159896,10.7163185 C6.43318463,10.7084777 6.44726454,10.7069253 6.45869705,10.6987476 L6.46064956,10.6987476 L7.37052847,10.0408129 L8.18863826,9.89829318 Z M2.780131,9.9295304 L3.63143397,10.0466705 L4.49054706,10.7046042 L4.51202492,10.7163185 C4.52636724,10.7252898 4.54241015,10.7292332 4.55693303,10.7377937 L3.00076684,12.293798 L3.00076684,11.5011533 C3.00073924,11.2251353 2.77696601,11.0013854 2.50091922,11.0013578 L1.70819209,11.0013578 L2.780131,9.9295304 Z" id="Shape" fill="#CDDC39" fill-rule="nonzero"></path>
    </g>
</svg>